<svg width="24" height="24" viewBox="0 0 24 24" fill="none" xmlns="http://www.w3.org/2000/svg">
<path fill-rule="evenodd" clip-rule="evenodd" d="M9.10001 2H14.9C15.58 2 16.54 2.4 17.02 2.88L21.12 6.98001C21.6 7.46001 22 8.42001 22 9.10001V14.9C22 15.58 21.6 16.54 21.12 17.02L17.02 21.12C16.54 21.6 15.58 22 14.9 22H9.10001C8.42001 22 7.46 21.6 6.98 21.12L2.88 17.02C2.4 16.54 2 15.58 2 14.9V9.10001C2 8.42001 2.4 7.46001 2.88 6.98001L6.98 2.88C7.46 2.4 8.42001 2 9.10001 2ZM16.0304 9.02994L13.0604 11.9999L16.0304 14.9699C16.3204 15.2599 16.3204 15.7399 16.0304 16.0299C15.8804 16.1799 15.6904 16.2499 15.5004 16.2499C15.3104 16.2499 15.1204 16.1799 14.9704 16.0299L12.0004 13.0599L9.03043 16.0299C8.88043 16.1799 8.69043 16.2499 8.50043 16.2499C8.31043 16.2499 8.12043 16.1799 7.97043 16.0299C7.68043 15.7399 7.68043 15.2599 7.97043 14.9699L10.9404 11.9999L7.97043 9.02994C7.68043 8.73994 7.68043 8.25994 7.97043 7.96994C8.26043 7.67994 8.74043 7.67994 9.03043 7.96994L12.0004 10.9399L14.9704 7.96994C15.2604 7.67994 15.7404 7.67994 16.0304 7.96994C16.3204 8.25994 16.3204 8.73994 16.0304 9.02994Z" fill="#4B5DD9"/>
</svg>
