<svg width="12" height="8" viewBox="0 0 12 8" fill="none" xmlns="http://www.w3.org/2000/svg">
<path d="M11.0326 0.407487C10.9629 0.337191 10.8799 0.281395 10.7885 0.243318C10.6971 0.205242 10.5991 0.185638 10.5001 0.185638C10.4011 0.185638 10.303 0.205242 10.2117 0.243318C10.1203 0.281395 10.0373 0.337191 9.96759 0.407487L4.38008 6.00249L2.03258 3.64749C1.96019 3.57756 1.87474 3.52257 1.7811 3.48567C1.68745 3.44877 1.58746 3.43067 1.48683 3.43241C1.38619 3.43415 1.28688 3.4557 1.19457 3.49582C1.10227 3.53594 1.01876 3.59385 0.948834 3.66624C0.878905 3.73863 0.82392 3.82408 0.787017 3.91773C0.750114 4.01137 0.732016 4.11136 0.733757 4.212C0.735498 4.31263 0.757044 4.41194 0.797164 4.50425C0.837284 4.59656 0.895193 4.68006 0.967584 4.74999L3.84758 7.62999C3.91731 7.70028 4.00026 7.75608 4.09165 7.79416C4.18305 7.83223 4.28108 7.85184 4.38008 7.85184C4.47909 7.85184 4.57712 7.83223 4.66852 7.79416C4.75991 7.75608 4.84286 7.70028 4.91258 7.62999L11.0326 1.50999C11.1087 1.43976 11.1695 1.35452 11.211 1.25964C11.2526 1.16477 11.274 1.06231 11.274 0.958737C11.274 0.855161 11.2526 0.752707 11.211 0.657832C11.1695 0.562958 11.1087 0.477719 11.0326 0.407487Z" fill="#27AE60"/>
</svg>
