<svg width="24" height="24" viewBox="0 0 24 24" fill="none" xmlns="http://www.w3.org/2000/svg">
<rect width="24" height="24" rx="6" fill="#063D86"/>
<path fill-rule="evenodd" clip-rule="evenodd" d="M12 18.75C15.7279 18.75 18.75 15.7279 18.75 12C18.75 8.27208 15.7279 5.25 12 5.25C8.27208 5.25 5.25 8.27208 5.25 12C5.25 15.7279 8.27208 18.75 12 18.75ZM12.9643 9.10714C12.9643 8.57458 12.5326 8.14286 12 8.14286C11.4674 8.14286 11.0357 8.57458 11.0357 9.10714V12.2671L12.6196 14.9068C12.8936 15.3635 13.4859 15.5116 13.9425 15.2376C14.3992 14.9636 14.5473 14.3713 14.2733 13.9146L12.9643 11.7329V9.10714Z" fill="white"/>
</svg>
