<svg width="24" height="24" viewBox="0 0 24 24" fill="none" xmlns="http://www.w3.org/2000/svg">
<path d="M11.2133 3.1156C11.5327 2.45969 12.4673 2.45969 12.7867 3.1156L14.8572 7.3677C14.9847 7.62958 15.2342 7.81084 15.5227 7.85119L20.2065 8.50638C20.929 8.60745 21.2178 9.49632 20.6927 10.0028L17.2885 13.2859C17.0788 13.4881 16.9835 13.7814 17.0343 14.0682L17.8586 18.7252C17.9857 19.4436 17.2296 19.9929 16.5857 19.65L12.4113 17.427C12.1542 17.2901 11.8458 17.2901 11.5887 17.427L7.41433 19.65C6.77041 19.9929 6.01429 19.4436 6.14143 18.7252L6.96569 14.0682C7.01645 13.7814 6.92116 13.4881 6.7115 13.2859L3.30733 10.0028C2.78222 9.49632 3.07103 8.60745 3.79353 8.50638L8.47734 7.85119C8.76581 7.81084 9.01529 7.62958 9.14281 7.3677L11.2133 3.1156Z" fill="#4B5DD9"/>
</svg>
