<svg width="150" height="150" viewBox="0 0 150 150" fill="none" xmlns="http://www.w3.org/2000/svg">
<path fill-rule="evenodd" clip-rule="evenodd" d="M53.32 19.7027C54.7561 19.1269 55.4542 17.4944 54.8793 16.0562C54.3044 14.618 52.6743 13.9189 51.2383 14.4946C50.7389 14.6948 50.2426 14.901 49.7494 15.113C48.328 15.7239 47.6702 17.3732 48.2803 18.7968C48.8904 20.2203 50.5372 20.879 51.9587 20.268C52.4096 20.0742 52.8635 19.8857 53.32 19.7027ZM34.0458 29.0457C33.9427 28.8824 33.8211 28.7273 33.681 28.5835C33.6 28.5004 33.5151 28.4234 33.4268 28.3525L32.3298 27.1239C30.9053 25.5286 28.4482 25.3843 26.9371 26.8979C25.4291 28.4083 25.5729 30.8595 27.1628 32.2834L28.4009 33.3922C28.4709 33.4793 28.5469 33.5631 28.6288 33.6432C28.7713 33.7825 28.9248 33.9035 29.0865 34.0063L30.7177 35.4671C32.0388 36.6503 34.0632 36.5298 35.3165 35.275C36.5671 34.0227 36.6871 32.0036 35.5083 30.6835L34.0458 29.0457ZM20.3257 51.9481C20.9357 50.5246 20.278 48.8753 18.8566 48.2643C17.4352 47.6533 15.7883 48.312 15.1783 49.7356C14.9666 50.2295 14.7607 50.7266 14.5608 51.2267C13.986 52.6648 14.6841 54.2974 16.1201 54.8731C17.5561 55.4488 19.1863 54.7497 19.7611 53.3115C19.9439 52.8543 20.1321 52.3998 20.3257 51.9481ZM13.3018 72.2011C13.1108 72.1574 12.9124 72.1332 12.7087 72.1308C12.5888 72.1293 12.4706 72.1354 12.3546 72.1487L10.7205 72.0582C8.58659 71.94 6.75 73.5749 6.75 75.7121C6.75 77.8493 8.58659 79.4842 10.7205 79.366L12.3567 79.2754C12.4721 79.2885 12.5896 79.2945 12.7087 79.2931C12.9117 79.2906 13.1094 79.2666 13.2996 79.2232L15.4683 79.1031C17.2412 79.0049 18.5898 77.4877 18.5898 75.7121C18.5898 73.9365 17.2412 72.4193 15.4683 72.3211L13.3018 72.2011ZM136.813 100.197C137.388 98.759 136.69 97.1264 135.254 96.5507C133.818 95.975 132.188 96.6741 131.613 98.1123C131.43 98.5695 131.242 99.024 131.049 99.4757C130.439 100.899 131.096 102.549 132.518 103.16C133.939 103.771 135.586 103.112 136.196 101.688C136.408 101.194 136.614 100.697 136.813 100.197ZM19.7611 98.1123C19.1863 96.6741 17.5561 95.975 16.1201 96.5507C14.6841 97.1264 13.986 98.759 14.5608 100.197C14.7607 100.697 14.9666 101.194 15.1783 101.688C15.7883 103.112 17.4352 103.771 18.8566 103.16C20.278 102.549 20.9358 100.899 20.3257 99.4757C20.1321 99.024 19.9439 98.5695 19.7611 98.1123ZM29.088 117.417C28.9257 117.52 28.7717 117.641 28.6288 117.781C28.5464 117.861 28.4701 117.945 28.3998 118.033L27.1628 119.141C25.5729 120.565 25.4291 123.016 26.9371 124.526C28.4482 126.04 30.9053 125.896 32.3298 124.3L33.428 123.07C33.5158 123 33.6003 122.923 33.681 122.84C33.8207 122.697 33.9421 122.542 34.045 122.379L35.5083 120.741C36.6871 119.421 36.5671 117.401 35.3165 116.149C34.0632 114.894 32.0388 114.774 30.7177 115.957L29.088 117.417ZM122.976 118.035C122.905 117.947 122.828 117.862 122.745 117.781C122.602 117.64 122.447 117.519 122.284 117.415L120.656 115.957C119.335 114.774 117.31 114.894 116.057 116.149C114.807 117.401 114.687 119.421 115.865 120.741L117.331 122.382C117.433 122.544 117.554 122.698 117.693 122.84C117.773 122.922 117.857 122.998 117.944 123.069L119.044 124.3C120.468 125.896 122.925 126.04 124.437 124.526C125.944 123.016 125.801 120.565 124.211 119.141L122.976 118.035ZM101.625 136.311C103.046 135.7 103.704 134.051 103.094 132.627C102.484 131.203 100.837 130.545 99.4156 131.156C98.9646 131.35 98.5108 131.538 98.0542 131.721C96.6182 132.297 95.9201 133.929 96.4949 135.368C97.0698 136.806 98.7 137.505 100.136 136.929C100.635 136.729 101.132 136.523 101.625 136.311ZM51.9587 131.156C50.5372 130.545 48.8904 131.203 48.2803 132.627C47.6702 134.051 48.328 135.7 49.7494 136.311C50.2426 136.523 50.7389 136.729 51.2383 136.929C52.6743 137.505 54.3044 136.806 54.8793 135.368C55.4542 133.929 54.7561 132.297 53.3201 131.721C52.8635 131.538 52.4097 131.35 51.9587 131.156ZM72.1809 138.193C72.1377 138.383 72.1137 138.581 72.1113 138.784C72.1099 138.903 72.1158 139.02 72.1288 139.136L72.0377 140.787C71.92 142.918 73.5526 144.752 75.6868 144.752C77.821 144.752 79.4536 142.918 79.336 140.787L79.245 139.14C79.2583 139.023 79.2644 138.904 79.263 138.784C79.2605 138.58 79.2363 138.381 79.1925 138.189L79.0722 136.011C78.9745 134.241 77.4596 132.894 75.6868 132.894C73.914 132.894 72.3991 134.241 72.3014 136.011L72.1809 138.193Z" fill="white"/>
<path d="M80.2323 9.70372C80.1812 7.19341 78.1047 5.19987 75.5944 5.25102C73.0841 5.30218 71.0906 7.37866 71.1417 9.88897L72.4788 75.5022C72.5655 79.7606 76.1441 83.1108 80.3989 82.9171L138.911 80.2535C141.419 80.1394 143.36 78.0135 143.245 75.5052C143.131 72.997 141.005 71.0562 138.497 71.1704L86.3454 73.5445L137.544 59.4885L135.679 52.5509L82.666 73.6304L124.273 35.4931L119.169 29.847L81.6856 73.1311L100.801 18.0538L93.4745 16.011L81.4607 69.9826L80.2323 9.70372Z" fill="#A5F004"/>
</svg>
