<svg width="8" height="14" viewBox="0 0 8 14" fill="none" xmlns="http://www.w3.org/2000/svg">
<path d="M0.491024 6.29001L6.15102 0.640006C6.24399 0.546278 6.35459 0.471884 6.47645 0.421115C6.59831 0.370346 6.72901 0.344208 6.86102 0.344208C6.99304 0.344208 7.12374 0.370346 7.2456 0.421115C7.36746 0.471884 7.47806 0.546278 7.57102 0.640006C7.75727 0.827368 7.86182 1.08082 7.86182 1.34501C7.86182 1.60919 7.75727 1.86264 7.57102 2.05001L2.62102 7.05001L7.57102 12C7.75727 12.1874 7.86182 12.4408 7.86182 12.705C7.86182 12.9692 7.75727 13.2226 7.57102 13.41C7.47841 13.5045 7.36796 13.5797 7.24609 13.6312C7.12421 13.6827 6.99333 13.7095 6.86102 13.71C6.72872 13.7095 6.59783 13.6827 6.47596 13.6312C6.35408 13.5797 6.24364 13.5045 6.15102 13.41L0.491024 7.76001C0.389519 7.66636 0.308511 7.55271 0.253103 7.42621C0.197696 7.29971 0.169091 7.16311 0.169091 7.02501C0.169091 6.8869 0.197696 6.7503 0.253103 6.6238C0.308511 6.4973 0.389519 6.38365 0.491024 6.29001Z" fill="black"/>
</svg>
