<svg width="21" height="21" viewBox="0 0 21 21" fill="none" xmlns="http://www.w3.org/2000/svg">
<path fill-rule="evenodd" clip-rule="evenodd" d="M3.61967 3.24103C3.74841 3.59114 3.81116 3.96231 3.80468 4.33554C3.80907 5.62671 2.777 6.80147 1.4012 6.96816C0.733031 7.04401 0.296353 7.4497 0.17973 8.09529C-0.041412 9.26491 -0.0586212 10.4643 0.128872 11.6399C0.169094 11.9135 0.295026 12.167 0.488361 12.3637C0.681695 12.5604 0.932356 12.6899 1.20391 12.7335C1.44161 12.7638 1.67629 12.8146 1.9054 12.8852C3.41009 13.4126 4.13438 15.0751 3.52058 16.5744C3.25752 17.2076 3.38116 17.7738 3.87132 18.1778C4.76087 18.9146 5.76562 19.4981 6.84477 19.9046C7.44367 20.1304 8.011 19.9672 8.39857 19.4522C8.54801 19.2442 8.72235 19.0555 8.91767 18.8904C10.1251 17.9096 11.8271 18.1178 12.8232 19.3684C13.2301 19.8799 13.8036 20.0422 14.3823 19.8041C15.368 19.3996 16.2871 18.8474 17.1085 18.1663C17.5916 17.7659 17.7372 17.2164 17.5188 16.6273C16.8682 14.874 17.8696 13.1506 19.711 12.8561C19.9838 12.8184 20.2379 12.695 20.4369 12.5036C20.636 12.3121 20.7698 12.0623 20.8193 11.7898C21.0503 10.6069 21.0566 9.39075 20.8378 8.20554C20.7159 7.55113 20.3546 7.17983 19.711 7.059C17.9643 6.73003 16.9927 5.06314 17.5697 3.37862C17.7825 2.7589 17.6381 2.24178 17.1365 1.82727C16.2529 1.09496 15.2554 0.513929 14.1841 0.107462C13.5949 -0.114789 13.0573 0.0210313 12.6487 0.502576C11.4588 1.90223 9.54375 1.90223 8.3521 0.502576C7.94172 0.0175035 7.40421 -0.120081 6.81583 0.105699C5.83381 0.477711 4.91302 0.996222 4.0844 1.64382C3.54952 2.06275 3.3908 2.60162 3.61967 3.24103ZM9.16609 13.2491C9.59313 13.4263 10.0508 13.5168 10.5127 13.5152C11.4413 13.5101 12.3299 13.1348 12.9838 12.4717C13.6377 11.8086 14.0035 10.9117 14.0009 9.97774C14.0027 8.07096 12.4331 6.48169 10.5434 6.47463C8.58452 6.46758 7.00003 8.03921 7.00003 9.97951C6.99817 10.4441 7.08775 10.9045 7.26359 11.3342C7.43943 11.7638 7.69806 12.1542 8.02458 12.4829C8.35111 12.8115 8.73906 13.072 9.16609 13.2491Z" fill="#B8B8C6"/>
</svg>
