<svg width="24" height="24" viewBox="0 0 24 24" fill="none" xmlns="http://www.w3.org/2000/svg">
<path fill-rule="evenodd" clip-rule="evenodd" d="M5.61967 5.24103C5.74841 5.59114 5.81116 5.96231 5.80468 6.33554C5.80907 7.62671 4.777 8.80147 3.4012 8.96816C2.73303 9.04401 2.29635 9.4497 2.17973 10.0953C1.95859 11.2649 1.94138 12.4643 2.12887 13.6399C2.16909 13.9135 2.29503 14.167 2.48836 14.3637C2.6817 14.5604 2.93236 14.6899 3.20391 14.7335C3.44161 14.7638 3.67629 14.8146 3.9054 14.8852C5.41009 15.4126 6.13438 17.0751 5.52058 18.5744C5.25752 19.2076 5.38116 19.7738 5.87132 20.1778C6.76087 20.9146 7.76562 21.4981 8.84477 21.9046C9.44367 22.1304 10.011 21.9672 10.3986 21.4522C10.548 21.2442 10.7224 21.0555 10.9177 20.8904C12.1251 19.9096 13.8271 20.1178 14.8232 21.3684C15.2301 21.8799 15.8036 22.0422 16.3823 21.8041C17.368 21.3996 18.2871 20.8474 19.1085 20.1663C19.5916 19.7659 19.7372 19.2164 19.5188 18.6273C18.8682 16.874 19.8696 15.1506 21.711 14.8561C21.9838 14.8184 22.2379 14.695 22.4369 14.5036C22.636 14.3121 22.7698 14.0623 22.8193 13.7898C23.0503 12.6069 23.0566 11.3907 22.8378 10.2055C22.7159 9.55113 22.3546 9.17983 21.711 9.059C19.9643 8.73003 18.9927 7.06314 19.5697 5.37862C19.7825 4.7589 19.6381 4.24178 19.1365 3.82727C18.2529 3.09496 17.2554 2.51393 16.1841 2.10746C15.5949 1.88521 15.0573 2.02103 14.6487 2.50258C13.4588 3.90223 11.5438 3.90223 10.3521 2.50258C9.94172 2.0175 9.40421 1.87992 8.81583 2.1057C7.83381 2.47771 6.91302 2.99622 6.0844 3.64382C5.54952 4.06275 5.3908 4.60162 5.61967 5.24103ZM11.1661 15.2491C11.5931 15.4263 12.0508 15.5168 12.5127 15.5152C13.4413 15.5101 14.3299 15.1348 14.9838 14.4717C15.6377 13.8086 16.0035 12.9117 16.0009 11.9777C16.0027 10.071 14.4331 8.48169 12.5434 8.47463C10.5845 8.46758 9.00003 10.0392 9.00003 11.9795C8.99817 12.4441 9.08775 12.9045 9.26359 13.3342C9.43943 13.7638 9.69806 14.1542 10.0246 14.4829C10.3511 14.8115 10.7391 15.072 11.1661 15.2491Z" fill="#4B5DD9"/>
</svg>
