<svg width="24" height="24" viewBox="0 0 24 24" fill="none" xmlns="http://www.w3.org/2000/svg">
<path fill-rule="evenodd" clip-rule="evenodd" d="M15 2.99994L20 7C21.0989 7.77 22 9.24996 22 10.6V17.38C22 19.93 19.9321 22 17.3846 22H6.61538C4.06793 22 2 19.92 2 17.37V10.47C2 9.20996 3.001 7.78 4 7C4 7 7.49427 4.1699 9.00276 2.9999C11 1.89991 13 1.89994 15 2.99994ZM11 11C9.89543 11 9 11.8954 9 13V17C9 18.1046 9.89543 19 11 19H13C14.1046 19 15 18.1046 15 17V13C15 11.8954 14.1046 11 13 11H11Z" fill="#B8B8C6"/>
</svg>
