<svg width="44" height="44" viewBox="0 0 44 44" fill="none" xmlns="http://www.w3.org/2000/svg">
<path d="M25.7602 22L42.5602 5.22667C43.0623 4.72453 43.3444 4.04348 43.3444 3.33334C43.3444 2.6232 43.0623 1.94215 42.5602 1.44001C42.058 0.937863 41.377 0.655762 40.6668 0.655762C39.9567 0.655762 39.2756 0.937863 38.7735 1.44001L22.0002 18.24L5.22683 1.44001C4.72469 0.937863 4.04363 0.655762 3.3335 0.655762C2.62336 0.655762 1.94231 0.937863 1.44016 1.44001C0.938019 1.94215 0.655919 2.6232 0.655919 3.33334C0.655919 4.04348 0.938019 4.72453 1.44016 5.22667L18.2402 22L1.44016 38.7733C1.19022 39.0212 0.991836 39.3162 0.856453 39.6411C0.72107 39.9661 0.651367 40.3146 0.651367 40.6667C0.651367 41.0187 0.72107 41.3673 0.856453 41.6922C0.991836 42.0172 1.19022 42.3121 1.44016 42.56C1.68806 42.8099 1.983 43.0083 2.30796 43.1437C2.63292 43.2791 2.98146 43.3488 3.3335 43.3488C3.68553 43.3488 4.03408 43.2791 4.35903 43.1437C4.68399 43.0083 4.97893 42.8099 5.22683 42.56L22.0002 25.76L38.7735 42.56C39.0214 42.8099 39.3163 43.0083 39.6413 43.1437C39.9663 43.2791 40.3148 43.3488 40.6668 43.3488C41.0189 43.3488 41.3674 43.2791 41.6924 43.1437C42.0173 43.0083 42.3123 42.8099 42.5602 42.56C42.8101 42.3121 43.0085 42.0172 43.1439 41.6922C43.2793 41.3673 43.349 41.0187 43.349 40.6667C43.349 40.3146 43.2793 39.9661 43.1439 39.6411C43.0085 39.3162 42.8101 39.0212 42.5602 38.7733L25.7602 22Z" fill="#EF4646"/>
</svg>
