<svg width="16" height="15" viewBox="0 0 16 15" fill="none" xmlns="http://www.w3.org/2000/svg">
<path d="M7.4675 9.9675C7.43525 10.0031 7.40519 10.0407 7.3775 10.08C7.34912 10.1218 7.32642 10.1672 7.31 10.215C7.28838 10.2575 7.27321 10.303 7.265 10.35C7.26132 10.3999 7.26132 10.4501 7.265 10.5C7.26247 10.5984 7.28302 10.696 7.325 10.785C7.35869 10.8781 7.41243 10.9626 7.48242 11.0326C7.55241 11.1026 7.63693 11.1563 7.73 11.19C7.81978 11.2297 7.91685 11.2502 8.015 11.2502C8.11316 11.2502 8.21023 11.2297 8.3 11.19C8.39308 11.1563 8.4776 11.1026 8.54759 11.0326C8.61758 10.9626 8.67132 10.8781 8.705 10.785C8.73831 10.6938 8.75359 10.597 8.75 10.5C8.75058 10.4013 8.73166 10.3034 8.69433 10.2121C8.65701 10.1207 8.60202 10.0376 8.5325 9.9675C8.46278 9.8972 8.37983 9.84141 8.28844 9.80333C8.19704 9.76525 8.09901 9.74565 8 9.74565C7.901 9.74565 7.80297 9.76525 7.71157 9.80333C7.62018 9.84141 7.53723 9.8972 7.4675 9.9675ZM8 0C6.51664 0 5.0666 0.439867 3.83323 1.26398C2.59986 2.08809 1.63856 3.25943 1.07091 4.62987C0.50325 6.00032 0.354725 7.50832 0.644114 8.96318C0.933503 10.418 1.64781 11.7544 2.6967 12.8033C3.7456 13.8522 5.08197 14.5665 6.53683 14.8559C7.99168 15.1453 9.49968 14.9968 10.8701 14.4291C12.2406 13.8614 13.4119 12.9001 14.236 11.6668C15.0601 10.4334 15.5 8.98336 15.5 7.5C15.5 6.51509 15.306 5.53982 14.9291 4.62987C14.5522 3.71993 13.9997 2.89314 13.3033 2.1967C12.6069 1.50026 11.7801 0.947814 10.8701 0.570904C9.96019 0.193993 8.98492 0 8 0ZM8 13.5C6.81332 13.5 5.65328 13.1481 4.66658 12.4888C3.67989 11.8295 2.91085 10.8925 2.45673 9.7961C2.0026 8.69974 1.88378 7.49334 2.11529 6.32946C2.3468 5.16557 2.91825 4.09647 3.75736 3.25736C4.59648 2.41824 5.66558 1.8468 6.82946 1.61529C7.99335 1.38378 9.19975 1.5026 10.2961 1.95672C11.3925 2.41085 12.3295 3.17988 12.9888 4.16658C13.6481 5.15327 14 6.31331 14 7.5C14 9.0913 13.3679 10.6174 12.2426 11.7426C11.1174 12.8679 9.5913 13.5 8 13.5ZM8 3.75C7.6048 3.74975 7.2165 3.85359 6.87419 4.05108C6.53187 4.24857 6.2476 4.53274 6.05 4.875C5.99574 4.96036 5.9593 5.05582 5.94288 5.15563C5.92647 5.25544 5.93041 5.35754 5.95448 5.45579C5.97854 5.55404 6.02223 5.6464 6.08292 5.72733C6.1436 5.80825 6.22003 5.87606 6.30761 5.92668C6.39518 5.9773 6.49209 6.00969 6.5925 6.02188C6.69292 6.03408 6.79476 6.02584 6.89191 5.99766C6.98905 5.96947 7.07949 5.92193 7.15779 5.85789C7.23609 5.79385 7.30062 5.71463 7.3475 5.625C7.41358 5.51055 7.50873 5.41559 7.62331 5.34973C7.7379 5.28388 7.86785 5.24948 8 5.25C8.19892 5.25 8.38968 5.32902 8.53033 5.46967C8.67099 5.61032 8.75 5.80109 8.75 6C8.75 6.19891 8.67099 6.38968 8.53033 6.53033C8.38968 6.67098 8.19892 6.75 8 6.75C7.80109 6.75 7.61033 6.82902 7.46967 6.96967C7.32902 7.11032 7.25 7.30109 7.25 7.5V8.25C7.25 8.44891 7.32902 8.63968 7.46967 8.78033C7.61033 8.92098 7.80109 9 8 9C8.19892 9 8.38968 8.92098 8.53033 8.78033C8.67099 8.63968 8.75 8.44891 8.75 8.25V8.115C9.24603 7.93502 9.66302 7.58642 9.92808 7.13015C10.1931 6.67388 10.2894 6.13897 10.2001 5.61892C10.1107 5.09887 9.8414 4.62676 9.43925 4.28514C9.03709 3.94351 8.52766 3.75409 8 3.75Z" fill="#063D86"/>
</svg>
