<svg width="64" height="64" viewBox="0 0 64 64" fill="none" xmlns="http://www.w3.org/2000/svg">
<rect opacity="0.1" width="64" height="64" rx="12" fill="#F57F17"/>
<path d="M44.2271 18.7467C43.2714 18.5821 42.3036 18.4973 41.3338 18.4934C38.0249 18.4906 34.7851 19.4395 32.0004 21.2267C29.2086 19.4629 25.9693 18.5374 22.6671 18.56C21.6973 18.564 20.7295 18.6487 19.7738 18.8134C19.4607 18.8673 19.1772 19.0313 18.9743 19.2757C18.7714 19.5202 18.6625 19.829 18.6671 20.1467V36.1467C18.6642 36.3426 18.7046 36.5367 18.7853 36.7153C18.866 36.8938 18.9851 37.0524 19.134 37.1797C19.2829 37.307 19.4581 37.3999 19.647 37.4518C19.836 37.5037 20.034 37.5133 20.2271 37.48C22.1378 37.1492 24.0954 37.2041 25.9845 37.6415C27.8737 38.0788 29.6562 38.8898 31.2271 40.0267L31.3871 40.12H31.5338C31.6816 40.1816 31.8402 40.2134 32.0004 40.2134C32.1606 40.2134 32.3192 40.1816 32.4671 40.12H32.6138L32.7738 40.0267C34.3337 38.8644 36.1111 38.0271 38.0006 37.5645C39.8902 37.1018 41.8533 37.0232 43.7738 37.3334C43.9668 37.3667 44.1649 37.357 44.3538 37.3051C44.5428 37.2532 44.7179 37.1603 44.8669 37.033C45.0158 36.9057 45.1349 36.7471 45.2156 36.5686C45.2963 36.3901 45.3366 36.1959 45.3338 36V20C45.3199 19.6962 45.2026 19.4063 45.0013 19.1783C44.8 18.9504 44.5268 18.7981 44.2271 18.7467ZM30.6671 36.4667C28.2003 35.1689 25.4545 34.4916 22.6671 34.4934C22.2271 34.4934 21.7871 34.4934 21.3338 34.4934V21.16C21.7778 21.1344 22.223 21.1344 22.6671 21.16C25.5116 21.1569 28.2941 21.9916 30.6671 23.56V36.4667ZM42.6671 34.5467C42.2138 34.5467 41.7738 34.5467 41.3338 34.5467C38.5464 34.545 35.8006 35.2223 33.3338 36.52V23.56C35.7068 21.9916 38.4893 21.1569 41.3338 21.16C41.7778 21.1344 42.223 21.1344 42.6671 21.16V34.5467ZM44.2271 40.08C43.2714 39.9154 42.3036 39.8307 41.3338 39.8267C38.0249 39.824 34.7851 40.7728 32.0004 42.56C29.2158 40.7728 25.976 39.824 22.6671 39.8267C21.6973 39.8307 20.7295 39.9154 19.7738 40.08C19.6002 40.1076 19.4338 40.1691 19.2841 40.2612C19.1344 40.3533 19.0044 40.4741 18.9016 40.6166C18.7987 40.7591 18.7251 40.9205 18.6848 41.0915C18.6446 41.2626 18.6386 41.4399 18.6671 41.6134C18.7349 41.9596 18.9371 42.2649 19.2295 42.4623C19.5219 42.6597 19.8806 42.7332 20.2271 42.6667C22.1378 42.3359 24.0954 42.3908 25.9845 42.8281C27.8737 43.2655 29.6562 44.0765 31.2271 45.2134C31.4529 45.3741 31.7232 45.4605 32.0004 45.4605C32.2776 45.4605 32.548 45.3741 32.7738 45.2134C34.3447 44.0765 36.1272 43.2655 38.0164 42.8281C39.9055 42.3908 41.8631 42.3359 43.7738 42.6667C44.1203 42.7332 44.479 42.6597 44.7714 42.4623C45.0638 42.2649 45.266 41.9596 45.3338 41.6134C45.3623 41.4399 45.3563 41.2626 45.316 41.0915C45.2758 40.9205 45.2021 40.7591 45.0993 40.6166C44.9964 40.4741 44.8664 40.3533 44.7168 40.2612C44.5671 40.1691 44.4007 40.1076 44.2271 40.08Z" fill="#F57F17"/>
</svg>
