<svg width="12" height="10" viewBox="0 0 12 10" fill="none" xmlns="http://www.w3.org/2000/svg">
<path d="M10.7583 4.40833L6.59166 0.241662C6.51241 0.165795 6.41895 0.106324 6.31666 0.0666617C6.11377 -0.0166867 5.88621 -0.0166867 5.68333 0.0666617C5.58103 0.106324 5.48758 0.165795 5.40833 0.241662L1.24166 4.40833C1.16396 4.48603 1.10233 4.57827 1.06028 4.67979C1.01823 4.78131 0.996582 4.89011 0.996582 5C0.996582 5.22191 1.08474 5.43474 1.24166 5.59166C1.39858 5.74858 1.61141 5.83674 1.83333 5.83674C2.05524 5.83674 2.26807 5.74858 2.42499 5.59166L5.16666 2.84166V9.16666C5.16666 9.38768 5.25446 9.59964 5.41074 9.75592C5.56702 9.9122 5.77898 10 5.99999 10C6.22101 10 6.43297 9.9122 6.58925 9.75592C6.74553 9.59964 6.83333 9.38768 6.83333 9.16666V2.84166L9.57499 5.59166C9.65246 5.66977 9.74463 5.73176 9.84618 5.77407C9.94773 5.81638 10.0566 5.83816 10.1667 5.83816C10.2767 5.83816 10.3856 5.81638 10.4871 5.77407C10.5887 5.73176 10.6809 5.66977 10.7583 5.59166C10.8364 5.51419 10.8984 5.42203 10.9407 5.32048C10.983 5.21893 11.0048 5.11001 11.0048 5C11.0048 4.88999 10.983 4.78106 10.9407 4.67951C10.8984 4.57797 10.8364 4.4858 10.7583 4.40833Z" fill="#27AE60"/>
</svg>
